<svg t="1756626510905" class="icon" viewBox="0 0 1024 1024" version="1.1" xmlns="http://www.w3.org/2000/svg" p-id="11241" width="200" height="200"><path d="M512 0C229.23 0 0 200.606 0 447.976c0 141.41 75.045 267.361 192.024 349.476V1024L416.33 887.954c31.013 5.072 62.903 8.095 95.671 8.095 282.77 0 512-200.607 512-448.073C1024 200.606 794.77 0 512 0zM256 512.049a64.024 64.024 0 1 1 0.049-128A64.024 64.024 0 0 1 256 512z m256 0a64.024 64.024 0 1 1 0-128.098 64.024 64.024 0 0 1 0 128.098z m256 0a64.024 64.024 0 1 1 0.049-128 64.024 64.024 0 0 1-0.049 128z" p-id="11242" fill="#737a87"></path></svg>